<?xml version="1.0" standalone="no"?>
<!DOCTYPE svg PUBLIC "-//W3C//DTD SVG 20010904//EN"
 "http://www.w3.org/TR/2001/REC-SVG-20010904/DTD/svg10.dtd">
<svg version="1.0" xmlns="http://www.w3.org/2000/svg"
 width="55.000000px" height="55.000000px" viewBox="0 0 457.000000 457.000000"
 preserveAspectRatio="xMidYMid meet">

<g transform="translate(0.000000,457.000000) scale(0.100000,-0.100000)"
fill="#fff" stroke="none">
<path d="M2124 4539 c-806 -58 -1530 -553 -1879 -1285 -293 -615 -293 -1333 0
-1948 253 -530 708 -946 1259 -1151 500 -185 1075 -185 1571 0 623 234 1106
717 1340 1340 185 495 185 1075 0 1570 -286 764 -949 1313 -1750 1449 -89 16
-342 37 -400 34 -16 0 -80 -4 -141 -9z m-372 -859 c31 -24 39 -59 22 -98 -20
-50 -94 -61 -94 -15 0 52 -78 -53 -112 -151 -24 -71 -24 -190 2 -264 25 -72
99 -180 159 -233 25 -23 123 -96 216 -162 211 -150 304 -224 346 -279 18 -24
35 -45 37 -48 2 -3 8 4 15 15 39 71 177 184 429 354 150 101 212 156 269 244
55 85 74 147 73 247 -1 94 -21 160 -74 243 -34 53 -46 58 -60 21 -8 -20 -14
-24 -33 -18 -52 15 -77 66 -57 114 15 36 90 70 90 41 0 -5 28 -51 63 -103 75
-112 98 -175 104 -288 5 -73 2 -96 -19 -156 -53 -152 -131 -234 -385 -407
-281 -192 -373 -276 -389 -357 -6 -25 0 -41 29 -83 53 -76 69 -123 74 -212 6
-97 -14 -190 -60 -284 -33 -69 -129 -172 -371 -397 -64 -60 -106 -107 -104
-115 6 -18 -49 -99 -67 -99 -8 0 -21 -10 -29 -22 -9 -12 -19 -19 -23 -15 -3 4
-1 13 5 19 7 7 12 24 12 38 0 29 44 100 63 100 7 0 25 18 41 40 16 21 54 60
85 87 117 101 295 280 327 330 56 85 87 193 87 298 0 100 -16 149 -72 219 -17
21 -31 47 -31 58 0 84 -91 174 -375 373 -186 130 -251 183 -306 252 -163 203
-164 410 -6 635 24 35 47 71 50 81 8 23 38 22 69 -3z m-378 -1221 c86 -24 153
-93 163 -168 l6 -41 -50 0 -49 0 -12 45 c-19 70 -91 105 -187 91 -64 -10 -105
-51 -105 -106 0 -65 41 -99 165 -139 174 -57 238 -117 238 -225 0 -114 -81
-185 -219 -194 -139 -9 -242 38 -288 130 -40 79 -37 88 29 88 54 0 55 0 55
-29 0 -101 205 -151 290 -71 25 23 30 36 30 75 0 65 -31 92 -156 134 -162 55
-222 99 -244 181 -24 88 36 189 131 223 52 18 148 21 203 6z m2173 -17 c50
-26 96 -80 112 -131 18 -61 16 -62 -41 -59 -50 3 -53 4 -59 36 -27 132 -270
138 -295 7 -13 -72 34 -113 185 -160 104 -33 170 -78 199 -135 58 -115 -6
-236 -143 -271 -101 -26 -236 3 -303 65 -31 27 -62 88 -62 121 0 23 3 25 49
25 47 0 49 -1 55 -33 20 -108 222 -146 301 -57 14 15 20 36 20 67 0 62 -35 91
-157 132 -175 58 -247 122 -248 218 0 92 56 160 160 194 47 16 181 4 227 -19z"/>
<path d="M1708 3641 c-23 -22 -22 -27 1 -50 16 -16 22 -17 31 -6 8 10 8 15 0
20 -8 5 -8 11 -2 17 11 11 5 39 -7 37 -3 0 -14 -8 -23 -18z"/>
<path d="M2927 3653 c-8 -15 0 -64 11 -75 9 -9 12 -8 12 5 0 9 7 17 15 17 21
0 19 16 -5 40 -22 22 -27 24 -33 13z"/>
<path d="M1864 1269 c-3 -6 -1 -16 5 -22 9 -9 14 -8 21 3 5 8 10 18 10 23 0
11 -28 8 -36 -4z"/>
<path d="M1840 1225 c0 -8 7 -15 15 -15 8 0 15 4 15 9 0 5 -7 11 -15 15 -9 3
-15 0 -15 -9z"/>
</g>
</svg>
